<svg xmlns="http://www.w3.org/2000/svg" viewBox="0 0 93.39 24"><defs><style>.cls-1{fill:#fff;}.cls-2{fill:#00a0df;}</style></defs><g id="Livello_2" data-name="Livello 2"><g id="Livello_1-2" data-name="Livello 1"><path class="cls-1" d="M34.77,7.81h2.61V5.34H34.77v-4L32.11,2.58V5.34h-.62L30.16,6V7.81h1.95v7.3c0,2.7,2,3.55,3.73,3.56a4.74,4.74,0,0,0,2.63-.73V16.2H36.36c-1.52,0-1.58-.49-1.58-2.3Z"/><polygon class="cls-2" points="8 21.33 2.67 21.33 2.67 16 0 17.25 0 24 2.67 24 2.67 24 8 24 8 21.33"/><polygon class="cls-2" points="85.39 2.67 90.72 2.67 90.72 8 93.39 6.75 93.39 0 90.72 0.01 90.72 0.01 85.39 0.01 85.39 2.67"/><path class="cls-1" d="M12,13.53c3.15,0,4.31-1.45,4.31-3.16V8.89c0-1.7-1.29-3.55-4.19-3.55H9.76a4.28,4.28,0,0,0-4.41,4.1c0,.45,0,3.73,0,4.09a5.53,5.53,0,0,0,5.75,5.14,7.21,7.21,0,0,0,5-1.89l-1.55-2.16c-1.4,1-1.79,1.38-3.31,1.38S8,15.15,8,13.53ZM12,8c1.32,0,1.62.39,1.62,1.25v.58c0,1.13-.51,1-1.66,1H8V9.44A1.44,1.44,0,0,1,9.57,8Z"/><path class="cls-1" d="M76,18.48l-.25-.84V0L73.1,1.25V5.64a3.64,3.64,0,0,0-1.52-.3H69.27a4.08,4.08,0,0,0-4.21,4.1c0,.45,0,3.73,0,4.09a5.35,5.35,0,0,0,5.56,5.14,4.8,4.8,0,0,0,2.54-.88l.21.69Zm-8.33-5.13V9.63A1.59,1.59,0,0,1,69.27,8h2.21c1.3,0,1.61.71,1.62,1.55v5.63a3.43,3.43,0,0,1-2.42.82A2.8,2.8,0,0,1,67.71,13.35Z"/><path class="cls-1" d="M23.39,5.34a6.48,6.48,0,0,0-2.84.78l-.17-.58H17.71l.24.82V18.48h2.67V8.8A5.18,5.18,0,0,1,23.31,8c1.47,0,2.72.65,2.72,2.5v8H28.7V10.31C28.7,7.1,26.69,5.34,23.39,5.34Z"/><path class="cls-1" d="M58.27,5.34a6.48,6.48,0,0,0-2.83.78l-.17-.58H52.6l.24.82V18.48h2.67V8.8A5.15,5.15,0,0,1,58.19,8c1.48,0,2.73.65,2.73,2.5v8h2.67V10.31C63.59,7.1,61.58,5.34,58.27,5.34Z"/><path class="cls-1" d="M84,5.34h-2.3a4.09,4.09,0,0,0-4.22,4.1v5.14a4.09,4.09,0,0,0,4.22,4.09H84a3.8,3.8,0,0,0,4-3.55V8.89A3.81,3.81,0,0,0,84,5.34Zm1.33,9.09c0,.85-.3,1.58-1.62,1.58h-2a1.59,1.59,0,0,1-1.56-1.63V9.63A1.59,1.59,0,0,1,81.71,8h2c1.32,0,1.62.73,1.62,1.58Z"/><path class="cls-1" d="M51.15,18.48l-.31-1V8.89a3.81,3.81,0,0,0-4-3.55h-2.5a4,4,0,0,0-4.06,3l2.31,1.08v0A1.42,1.42,0,0,1,44.14,8h2.41c1.31,0,1.62.72,1.62,1.57v.89H44.23c-3.15,0-4.31,1.45-4.31,3.17v1.47c0,1.71,1.29,3.55,4.19,3.55h1.25a3.91,3.91,0,0,0,2.86-1.06l.26.87Zm-3-3.9A1.43,1.43,0,0,1,46.61,16h-2.4c-1.32,0-1.62-.39-1.62-1.24v-.68c0-1,.51-.94,1.66-.94h3.92Z"/></g></g></svg>