<?xml version="1.0" encoding="UTF-8"?>
<svg width="122px" height="24px" viewBox="0 0 122 24" version="1.1" xmlns="http://www.w3.org/2000/svg" xmlns:xlink="http://www.w3.org/1999/xlink">
    <!-- Generator: Sketch 44.1 (41455) - http://www.bohemiancoding.com/sketch -->
    <title>Logo_Entando</title>
    <desc>Created with Sketch.</desc>
    <defs></defs>
    <g id="Entando_Home_4.3" stroke="none" stroke-width="1" fill="none" fill-rule="evenodd">
        <g id="Home_Entando_4.3_" transform="translate(-304.000000, -312.000000)" fill="#FFFFFF">
            <g id="Logo_Entando" transform="translate(304.000000, 312.000000)">
                <path d="M8.8791,8.0569 C14.3221,8.0569 12.6631,14.0379 3.8531,13.5839 C3.8531,9.1439 7.3521,8.0569 8.8791,8.0569 L8.8791,8.0569 Z M3.8751,16.2679 C18.0991,16.2679 18.0591,5.2039 8.5331,5.2039 C3.2191,5.2039 0.0001,9.7979 0.0001,14.3929 C0.0001,18.9929 2.9311,23.5819 8.1041,23.5819 C10.7301,23.5819 13.6761,22.4819 15.1751,21.3129 L13.9281,19.2429 C9.2261,22.6719 3.5651,19.9299 3.8581,16.2999 L3.8751,16.2679 Z" id="Fill-1"></path>
                <path d="M26.5744,5.2044 C23.5694,5.2044 21.5984,6.7084 20.9274,7.3134 L20.4624,5.9804 C20.4144,5.8454 20.2864,5.7544 20.1424,5.7544 L17.1054,5.7544 L17.8864,8.7694 L17.8864,23.2444 C17.8864,23.4314 18.0384,23.5824 18.2244,23.5824 L21.7314,23.5824 L21.7314,9.8944 C23.0014,8.1464 24.8384,8.0244 25.7754,8.0244 C27.3374,8.0244 29.1104,9.5154 29.1104,12.3534 L29.1104,23.2444 C29.1104,23.4314 29.2624,23.5824 29.4484,23.5824 L32.9424,23.5824 L32.9424,11.7544 C32.9424,8.2024 31.2744,5.2044 26.5744,5.2044" id="Fill-3"></path>
                <path d="M41.2219,7.7415 L45.6329,7.7415 C45.7999,7.7415 45.9419,7.6195 45.9669,7.4545 L46.3129,5.2045 L41.2219,5.2045 L41.2219,0.0395 L38.6039,0.9385 C38.4989,0.9775 38.4199,1.0645 38.3929,1.1735 L37.3729,5.2045 L34.8539,5.2045 L34.8539,7.7415 L37.3729,7.7415 L37.3729,18.6685 C37.3729,24.8055 44.6809,23.8475 46.3129,22.5705 L46.3129,20.5845 L43.4049,20.5845 C42.0989,20.5845 41.2259,19.9805 41.2259,18.4555 L41.2219,7.7415 Z" id="Fill-5"></path>
                <path d="M55.8694,20.6194 C50.8314,20.6194 50.1404,7.9534 56.9164,7.9534 C59.0804,7.9534 59.8604,8.5934 59.8604,8.5934 L59.8604,17.5254 C58.6334,20.2764 57.0154,20.6194 55.8694,20.6194 L55.8694,20.6194 Z M63.6844,6.7734 C61.2734,5.7274 59.2934,5.2044 56.7734,5.2044 C54.2554,5.2044 48.2234,6.7834 48.2234,14.3924 C48.2234,22.0034 52.0204,23.5824 55.4974,23.5824 C57.3194,23.5824 59.3384,22.2744 60.2384,21.3184 C60.6774,22.3794 61.2894,23.5824 63.2934,23.5824 C64.8184,23.5824 65.8484,22.8544 65.8484,22.8544 L65.6144,20.7254 C64.6784,20.7254 63.6774,19.9634 63.6774,17.7774 L63.6844,6.7734 Z" id="Fill-7"></path>
                <path d="M93.1643,20.6194 C88.1373,20.6194 87.7423,7.9534 94.2113,7.9534 C96.3753,7.9534 97.1553,8.5934 97.1553,8.5934 L97.1553,15.1204 L97.1553,17.5254 C95.9283,20.2764 94.3103,20.6194 93.1643,20.6194 L93.1643,20.6194 Z M100.9853,0.0004 L97.4113,0.8484 C97.2613,0.8864 97.1553,1.0204 97.1553,1.1764 L97.1553,5.5614 C96.2143,5.3264 95.2473,5.2044 94.0693,5.2044 C91.5503,5.2044 85.5183,6.7834 85.5183,14.3924 C85.5183,22.0034 89.3153,23.5824 92.7923,23.5824 C94.9993,23.5824 96.6333,22.2744 97.5333,21.3184 C97.9723,22.3794 98.8983,23.5824 100.6263,23.5824 C102.1513,23.5824 103.2663,22.8544 103.2663,22.8544 L103.2663,20.7254 C101.4393,20.7254 100.9853,20.0154 100.9853,17.7454 L100.9853,0.0004 Z" id="Fill-9"></path>
                <path d="M109.0383,14.0911 C109.0383,9.7811 110.7553,8.0141 113.3893,8.0141 C115.7103,8.0141 117.6663,9.6291 117.6663,14.1411 C117.6663,18.8051 115.7843,20.9471 113.3893,20.9471 C110.5533,20.9471 109.0383,18.4721 109.0383,14.0911 M105.1763,14.4711 C105.1763,18.9251 107.2783,23.6141 113.3893,23.6141 C120.1333,23.6141 121.5203,18.8861 121.5203,14.4711 C121.5203,10.0501 120.0923,5.2041 113.3893,5.2041 C107.3193,5.2041 105.1763,10.0181 105.1763,14.4711" id="Fill-11"></path>
                <path d="M77.22,5.2044 C74.215,5.2044 72.244,6.7084 71.573,7.3134 L71.108,5.9804 C71.06,5.8454 70.933,5.7544 70.789,5.7544 L67.751,5.7544 L68.532,8.7694 L68.532,23.2444 C68.532,23.4314 68.684,23.5824 68.87,23.5824 L72.377,23.5824 L72.377,9.8944 C73.647,8.1464 75.485,8.0244 76.421,8.0244 C77.983,8.0244 79.757,9.5154 79.757,12.3534 L79.757,23.2444 C79.757,23.4314 79.908,23.5824 80.094,23.5824 L83.588,23.5824 L83.588,11.7544 C83.588,8.2024 81.92,5.2044 77.22,5.2044" id="Fill-13"></path>
            </g>
        </g>
    </g>
</svg>