<svg xmlns="http://www.w3.org/2000/svg" viewBox="0 0 56.69 11.19"><defs><style>.cls-1{fill:#23a8e0;}</style></defs><title>Risorsa 1</title><g id="Livello_2" data-name="Livello 2"><g id="Livello_1-2" data-name="Livello 1"><path class="cls-1" d="M1.84,7.71C8.58,7.71,8.56,2.47,4,2.47A4.16,4.16,0,0,0,0,6.82C0,9,1.39,11.18,3.84,11.18A6.08,6.08,0,0,0,7.19,10.1l-.59-1c-2.23,1.63-4.91.33-4.77-1.39ZM4.21,3.82C6.79,3.82,6,6.65,1.83,6.44A2.43,2.43,0,0,1,4.21,3.82"/><path class="cls-1" d="M12.6,2.47a4,4,0,0,0-2.68,1L9.7,2.83a.16.16,0,0,0-.15-.11H8.11l.37,1.43V11a.16.16,0,0,0,.16.16H10.3V4.69a2.24,2.24,0,0,1,1.92-.89c.74,0,1.58.71,1.58,2.05V11a.16.16,0,0,0,.16.16h1.66V5.57c0-1.68-.79-3.1-3-3.1"/><path class="cls-1" d="M19.54,3.67h2.09a.16.16,0,0,0,.16-.14L22,2.47H19.54V0L18.3.45a.16.16,0,0,0-.1.11l-.48,1.91H16.52v1.2h1.19V8.85c0,2.91,3.46,2.46,4.24,1.85V9.76H20.57a.91.91,0,0,1-1-1Z"/><path class="cls-1" d="M29.73,3.21a7.69,7.69,0,0,0-3.28-.74A4,4,0,0,0,22.4,6.82c0,3.61,1.8,4.36,3.45,4.36A3.56,3.56,0,0,0,28.1,10.1a1.42,1.42,0,0,0,1.45,1.07,2.26,2.26,0,0,0,1.21-.34l-.11-1c-.44,0-.92-.36-.92-1.4ZM26,9.77c-2.39,0-2.72-6,.5-6a2.33,2.33,0,0,1,1.4.3V8.31c-.58,1.3-1.35,1.47-1.89,1.47"/><path class="cls-1" d="M47.41,0,45.72.4a.16.16,0,0,0-.12.16V2.64a5.86,5.86,0,0,0-1.46-.17,4,4,0,0,0-4.05,4.36c0,3.61,1.8,4.36,3.45,4.36a3.15,3.15,0,0,0,2.25-1.07,1.57,1.57,0,0,0,1.47,1.07,2.5,2.5,0,0,0,1.25-.34v-1c-.87,0-1.08-.34-1.08-1.41ZM43.71,9.77c-2.38,0-2.57-6,.5-6a2.33,2.33,0,0,1,1.4.3V8.31c-.58,1.3-1.35,1.47-1.89,1.47"/><path class="cls-1" d="M48.95,6.86c0,2.11,1,4.33,3.89,4.33,3.2,0,3.85-2.24,3.85-4.33S56,2.47,52.84,2.47C50,2.47,48.95,4.75,48.95,6.86Zm1.83-.18c0-2,.81-2.88,2.06-2.88s2,.77,2,2.9-.89,3.23-2,3.23C51.49,9.93,50.78,8.76,50.78,6.68Z"/><path class="cls-1" d="M36.15,2.47a4,4,0,0,0-2.68,1l-.22-.63a.16.16,0,0,0-.15-.11H31.66L32,4.16V11a.16.16,0,0,0,.16.16h1.66V4.69a2.24,2.24,0,0,1,1.92-.89c.74,0,1.58.71,1.58,2.05V11a.16.16,0,0,0,.16.16h1.66V5.57c0-1.68-.79-3.1-3-3.1"/></g></g></svg>